<?xml version="1.0" standalone="no"?><!DOCTYPE svg PUBLIC "-//W3C//DTD SVG 1.1//EN" "http://www.w3.org/Graphics/SVG/1.1/DTD/svg11.dtd"><svg t="1500122950059" class="icon" style="" viewBox="0 0 1024 1024" version="1.1" xmlns="http://www.w3.org/2000/svg" p-id="1673" xmlns:xlink="http://www.w3.org/1999/xlink" width="200" height="200"><defs><style type="text/css"></style></defs><path d="M512 1024C229.232 1024 0 794.768 0 512 0 229.232 229.232 0 512 0c282.768 0 512 229.232 512 512 0 282.768-229.232 512-512 512z m48-784c0-26.512-21.488-48-48-48s-48 21.488-48 48v352c0 26.512 21.488 48 48 48s48-21.488 48-48V240z m-48 496c-26.512 0-48 21.488-48 48s21.488 48 48 48 48-21.488 48-48-21.488-48-48-48z" fill="" p-id="1674"></path></svg>